<svg width="20" height="20" viewBox="0 0 20 20" fill="none" xmlns="http://www.w3.org/2000/svg">
<path d="M7.08434 9.47692C7.50494 9.47692 7.84591 9.81542 7.84591 10.233V11.2264H8.85543C9.14548 11.1952 9.42799 11.3312 9.58285 11.5767C9.73771 11.8222 9.73771 12.1339 9.58285 12.3793C9.42799 12.6248 9.14548 12.7609 8.85543 12.7297H7.84591V13.7319C7.84113 14.1474 7.50295 14.4832 7.08434 14.4879C6.65835 14.4831 6.32275 14.146 6.32278 13.7319V12.7297H5.31326C5.02321 12.7609 4.7407 12.6248 4.58584 12.3793C4.43097 12.1339 4.43097 11.8222 4.58584 11.5767C4.7407 11.3312 5.02321 11.1952 5.31326 11.2264H6.32278V10.233L6.32973 10.1304C6.38016 9.76135 6.69879 9.47692 7.08434 9.47692ZM14.1687 13.1868C14.3846 12.9722 14.7088 12.9064 14.9922 13.0198C15.0833 13.062 15.167 13.1184 15.2402 13.1868C15.5313 13.4796 15.5292 13.951 15.2355 14.2412C14.9418 14.5315 14.467 14.5315 14.1734 14.2412C13.8797 13.951 13.8776 13.4796 14.1687 13.1868ZM12.7164 9.67033C12.8979 9.59608 13.1016 9.59608 13.2831 9.67033C13.3779 9.71074 13.4648 9.76727 13.54 9.83736C13.6804 9.97766 13.7599 10.167 13.7613 10.3648C13.7625 10.464 13.7445 10.5625 13.7082 10.6549C13.6732 10.7494 13.6155 10.8339 13.54 10.9011C13.2424 11.1824 12.7748 11.1824 12.4773 10.9011C12.3294 10.7632 12.2455 10.5707 12.2455 10.3692C12.2455 10.1678 12.3294 9.97528 12.4773 9.83736C12.5439 9.76518 12.6255 9.70819 12.7164 9.67033ZM19.9954 9.516C19.8614 6.437 17.2534 4.08 14.1104 4.102C13.7254 4.108 13.4174 4.423 13.4224 4.809C13.4274 5.193 13.7414 5.509 14.1284 5.497C16.5754 5.448 18.4974 7.218 18.6004 9.575C18.6054 9.667 18.6064 9.76 18.6034 9.87V14.209C18.6294 15.35 18.2084 16.431 17.4204 17.254C16.6324 18.079 15.5704 18.546 14.4284 18.571C14.3354 18.573 14.2414 18.571 14.1074 18.567C11.3324 18.614 8.56936 18.614 5.85136 18.568C3.47836 18.67 1.50236 16.841 1.39936 14.491C1.39536 14.397 1.39436 14.303 1.39636 14.194V9.854C1.34536 7.5 3.21836 5.544 5.57436 5.494C5.66636 5.491 5.76036 5.494 5.88236 5.497H10.5694C10.9544 5.497 11.2674 5.185 11.2674 4.799V3.864C11.2474 2.416 10.0604 1.247 8.62136 1.247H8.60136H7.61136H7.60536C7.45836 1.247 7.31936 1.19 7.21336 1.086C7.10536 0.982 7.04536 0.841 7.04436 0.691C7.04036 0.308 6.72836 0 6.34736 0H6.33936C5.95436 0.004 5.64536 0.32 5.64936 0.705C5.65536 1.227 5.86336 1.717 6.23636 2.082C6.61036 2.45 7.10236 2.621 7.61936 2.643H8.60636H8.61636C9.30036 2.643 9.86336 3.197 9.87136 3.872V4.102L5.91236 4.103C5.78736 4.098 5.66336 4.096 5.54136 4.098C2.41936 4.166 -0.0666376 6.762 0.00136243 9.87V14.18C-0.000637571 14.303 0.00036243 14.426 0.00536243 14.55C0.142362 17.67 2.78536 20.115 5.87036 19.962C7.21136 19.986 8.57636 19.997 9.94736 19.997C11.3264 19.997 12.7114 19.986 14.0894 19.961C14.2144 19.966 14.3384 19.968 14.4614 19.965C15.9734 19.932 17.3824 19.313 18.4284 18.219C19.4744 17.126 20.0324 15.691 19.9984 14.194V9.887C20.0014 9.764 20.0004 9.64 19.9954 9.516Z" fill="#8978EF"/>
</svg>
